<svg class="diagram-root" style="background: #f5f6f6" xmlns="http://www.w3.org/2000/svg" xmlns:xlink="http://www.w3.org/1999/xlink"><style>.diagram-root { font-family: "Helvetica Neue", sans-serif; font-size: 12px; } .t { overflow: visible; } .t-bg { y: 40; fill: #fff;   } .th { fill: #005aa0;   } .tht { fill: #fff; font-size: 14px;  } .tf { fill: #323c46; overflow: visible; } .tf.pk { fill: #005aa0; font-weight: bold; } .tf.fk { font-weight: bold; } .ty { fill: #adb1b5; font-weight: normal; text-anchor: end; } .r { fill: transparent; stroke: #c3c3c3; stroke-width: 1; } .l { stroke: 1; } .i { fill: #c2c7ce; stroke: #c2c7ce; } .i.ix { fill: #afb3b6; stroke: #000; } .fa { fill: transparent; overflow: visible; } .fa .bg.hover { fill: #f7f7f7; } .c { cy: 12; r: 4; stroke: #d2d2dc; fill: #d2d2dc; } .hr { fill: transparent; stroke: #323c46; stroke-opacity: 0.035; stroke-width: 13; } .dc { stroke: #fa5a3c; fill: #fa5a3c; } .x { stroke: white; stroke-width: 1; } .hl .th { fill: #1b9bff; } .hl .tht {  } .fhl .bg { fill: #e7f4ff; } .fhls .bg {  } .r.hl { stroke: #1b9bff; } .dim { opacity: 0.25; }</style><g class="drawing-wrapper" transform="translate(-149, -44) scale(1,1)"><g class="rs"><path d="M 419 133 m -1, 0 a 1,1 0 1,0 2,0 a 1,1 0 1,0 -2,0 M 419 133 m -0.5, 0 a 0.5,0.5 0 1,0 1,0 a 0.5,0.5 0 1,0 -1,0  M419 133 L419 133 431 133 M 419 139 m -1, 0 a 1,1 0 1,0 2,0 a 1,1 0 1,0 -2,0 M 419 139 m -0.5, 0 a 0.5,0.5 0 1,0 1,0 a 0.5,0.5 0 1,0 -1,0  M419 139 L419 139 426 133 419 127 M 419 127 m -1, 0 a 1,1 0 1,0 2,0 a 1,1 0 1,0 -2,0 M 419 127 m -0.5, 0 a 0.5,0.5 0 1,0 1,0 a 0.5,0.5 0 1,0 -1,0  M431 133 Q 457 133, 483 132 T 535 131 M 547 131 m -1, 0 a 1,1 0 1,0 2,0 a 1,1 0 1,0 -2,0 M 547 131 m -0.5, 0 a 0.5,0.5 0 1,0 1,0 a 0.5,0.5 0 1,0 -1,0  M547 131 L547 131 535 131 M541 137 L541 137 541 125" id="h432294787" class="r"></path><path d="M 419 158 m -1, 0 a 1,1 0 1,0 2,0 a 1,1 0 1,0 -2,0 M 419 158 m -0.5, 0 a 0.5,0.5 0 1,0 1,0 a 0.5,0.5 0 1,0 -1,0  M419 158 L419 158 431 158 M 419 164 m -1, 0 a 1,1 0 1,0 2,0 a 1,1 0 1,0 -2,0 M 419 164 m -0.5, 0 a 0.5,0.5 0 1,0 1,0 a 0.5,0.5 0 1,0 -1,0  M419 164 L419 164 426 158 419 152 M 419 152 m -1, 0 a 1,1 0 1,0 2,0 a 1,1 0 1,0 -2,0 M 419 152 m -0.5, 0 a 0.5,0.5 0 1,0 1,0 a 0.5,0.5 0 1,0 -1,0  M431 158 Q 457 158, 483 157 T 535 156 M 547 156 m -1, 0 a 1,1 0 1,0 2,0 a 1,1 0 1,0 -2,0 M 547 156 m -0.5, 0 a 0.5,0.5 0 1,0 1,0 a 0.5,0.5 0 1,0 -1,0  M547 156 L547 156 535 156 M541 162 L541 162 541 150" id="h4032435748" class="r"></path><path d="M 949 131 m -1, 0 a 1,1 0 1,0 2,0 a 1,1 0 1,0 -2,0 M 949 131 m -0.5, 0 a 0.5,0.5 0 1,0 1,0 a 0.5,0.5 0 1,0 -1,0  M949 131 L949 131 937 131 M 949 137 m -1, 0 a 1,1 0 1,0 2,0 a 1,1 0 1,0 -2,0 M 949 137 m -0.5, 0 a 0.5,0.5 0 1,0 1,0 a 0.5,0.5 0 1,0 -1,0  M949 137 L949 137 942 131 949 125 M 949 125 m -1, 0 a 1,1 0 1,0 2,0 a 1,1 0 1,0 -2,0 M 949 125 m -0.5, 0 a 0.5,0.5 0 1,0 1,0 a 0.5,0.5 0 1,0 -1,0  M937 131 Q 905.5 131, 874 131 T 811 131 M 799 131 m -1, 0 a 1,1 0 1,0 2,0 a 1,1 0 1,0 -2,0 M 799 131 m -0.5, 0 a 0.5,0.5 0 1,0 1,0 a 0.5,0.5 0 1,0 -1,0  M799 131 L799 131 811 131 M805 137 L805 137 805 125" id="h1334704979" class="r"></path><path d="M 949 156 m -1, 0 a 1,1 0 1,0 2,0 a 1,1 0 1,0 -2,0 M 949 156 m -0.5, 0 a 0.5,0.5 0 1,0 1,0 a 0.5,0.5 0 1,0 -1,0  M949 156 L949 156 937 156 M 949 162 m -1, 0 a 1,1 0 1,0 2,0 a 1,1 0 1,0 -2,0 M 949 162 m -0.5, 0 a 0.5,0.5 0 1,0 1,0 a 0.5,0.5 0 1,0 -1,0  M949 162 L949 162 942 156 949 150 M 949 150 m -1, 0 a 1,1 0 1,0 2,0 a 1,1 0 1,0 -2,0 M 949 150 m -0.5, 0 a 0.5,0.5 0 1,0 1,0 a 0.5,0.5 0 1,0 -1,0  M937 156 Q 905.5 156, 874 156 T 811 156 M 799 156 m -1, 0 a 1,1 0 1,0 2,0 a 1,1 0 1,0 -2,0 M 799 156 m -0.5, 0 a 0.5,0.5 0 1,0 1,0 a 0.5,0.5 0 1,0 -1,0  M799 156 L799 156 811 156 M805 162 L805 162 805 150" id="h3736496349" class="r"></path></g><g class="hrs"></g><g class="ts"><svg width="248" height="625" x="171" y="76" id="h2356906006" class="t"><rect height="40" width="248" class="th"></rect><text x="13" y="25" class="tht">Offense</text><rect height="585" width="248" class="t-bg" y="40"></rect><text x="13" y="61" class="tf pk">years<tspan x="235" class="ty">int</tspan></text><path d="M7,14A2,2 0 0,1 5,12A2,2 0 0,1 7,10A2,2 0 0,1 9,12A2,2 0 0,1 7,14M12.65,10C11.83,7.67 9.61,6 7, 6A6, 6 0 0, 0 1, 12A6, 6 0 0, 0 7, 18C9.61, 18 11.83, 16.33 12.65, 14H17V18H21V14H23V10H12.65Z" class="i pk" transform="translate(202, 48) scale(0.65)"></path><text x="13" y="86" class="tf pk">abbreviation<tspan x="235" class="ty">varchar(255)</tspan></text><path d="M7,14A2,2 0 0,1 5,12A2,2 0 0,1 7,10A2,2 0 0,1 9,12A2,2 0 0,1 7,14M12.65,10C11.83,7.67 9.61,6 7, 6A6, 6 0 0, 0 1, 12A6, 6 0 0, 0 7, 18C9.61, 18 11.83, 16.33 12.65, 14H17V18H21V14H23V10H12.65Z" class="i pk" transform="translate(146, 73) scale(0.65)"></path><text x="13" y="111" class="tf">yards<tspan x="235" class="ty">int</tspan></text><text x="13" y="136" class="tf">margin_of_victory<tspan x="235" class="ty">float</tspan></text><text x="13" y="161" class="tf">offensive_simple_rating_system<tspan x="235" class="ty">float</tspan></text><text x="13" y="186" class="tf">pass_attempts<tspan x="235" class="ty">int</tspan></text><text x="13" y="211" class="tf">pass_completions<tspan x="235" class="ty">int</tspan></text><text x="13" y="236" class="tf">pass_first_downs<tspan x="235" class="ty">int</tspan></text><text x="13" y="261" class="tf">pass_net_yards_per_attempt<tspan x="235" class="ty">float</tspan></text><text x="13" y="286" class="tf">pass_touchdowns<tspan x="235" class="ty">int</tspan></text><text x="13" y="311" class="tf">pass_yards<tspan x="235" class="ty">int</tspan></text><text x="13" y="336" class="tf">percent_drives_with_turnovers<tspan x="235" class="ty">float</tspan></text><text x="13" y="361" class="tf">percent_drives_with_points<tspan x="235" class="ty">float</tspan></text><text x="13" y="386" class="tf">plays<tspan x="235" class="ty">int</tspan></text><text x="13" y="411" class="tf">points_contributed_by_offense<tspan x="235" class="ty">float</tspan></text><text x="13" y="436" class="tf">rank<tspan x="235" class="ty">int</tspan></text><text x="13" y="461" class="tf">rush_attempts<tspan x="235" class="ty">int</tspan></text><text x="13" y="486" class="tf">rush_first_downs<tspan x="235" class="ty">int</tspan></text><text x="13" y="511" class="tf">rush_yards_per_attempt<tspan x="235" class="ty">float</tspan></text><text x="13" y="536" class="tf">turnovers<tspan x="235" class="ty">int</tspan></text><text x="13" y="561" class="tf">win_percentage<tspan x="235" class="ty">float</tspan></text><text x="13" y="586" class="tf">yards_per_play<tspan x="235" class="ty">float</tspan></text><text x="13" y="611" class="tf">first_downs<tspan x="235" class="ty">int</tspan></text></svg><svg width="252" height="175" x="547" y="74" id="h4092712858" class="t"><rect height="40" width="252" class="th"></rect><text x="13" y="25" class="tht">Defense</text><rect height="135" width="252" class="t-bg" y="40"></rect><text x="13" y="61" class="tf pk">years<tspan x="239" class="ty">int</tspan></text><path d="M7,14A2,2 0 0,1 5,12A2,2 0 0,1 7,10A2,2 0 0,1 9,12A2,2 0 0,1 7,14M12.65,10C11.83,7.67 9.61,6 7, 6A6, 6 0 0, 0 1, 12A6, 6 0 0, 0 7, 18C9.61, 18 11.83, 16.33 12.65, 14H17V18H21V14H23V10H12.65Z" class="i pk" transform="translate(206, 48) scale(0.65)"></path><text x="13" y="86" class="tf pk">abbreviation<tspan x="239" class="ty">varchar(255)</tspan></text><path d="M7,14A2,2 0 0,1 5,12A2,2 0 0,1 7,10A2,2 0 0,1 9,12A2,2 0 0,1 7,14M12.65,10C11.83,7.67 9.61,6 7, 6A6, 6 0 0, 0 1, 12A6, 6 0 0, 0 7, 18C9.61, 18 11.83, 16.33 12.65, 14H17V18H21V14H23V10H12.65Z" class="i pk" transform="translate(150, 73) scale(0.65)"></path><text x="13" y="111" class="tf">defensive_simple_rating_system<tspan x="239" class="ty">float</tspan></text><text x="13" y="136" class="tf">interceptions<tspan x="239" class="ty">int</tspan></text><text x="13" y="161" class="tf">points_against<tspan x="239" class="ty">int</tspan></text></svg><svg width="226" height="450" x="949" y="74" id="h2800311900" class="t"><rect height="40" width="226" class="th"></rect><text x="13" y="25" class="tht">Misc</text><rect height="410" width="226" class="t-bg" y="40"></rect><text x="13" y="61" class="tf pk">year<tspan x="213" class="ty">int</tspan></text><path d="M7,14A2,2 0 0,1 5,12A2,2 0 0,1 7,10A2,2 0 0,1 9,12A2,2 0 0,1 7,14M12.65,10C11.83,7.67 9.61,6 7, 6A6, 6 0 0, 0 1, 12A6, 6 0 0, 0 7, 18C9.61, 18 11.83, 16.33 12.65, 14H17V18H21V14H23V10H12.65Z" class="i pk" transform="translate(180, 48) scale(0.65)"></path><text x="13" y="86" class="tf pk">abbreviation<tspan x="213" class="ty">varchar(255)</tspan></text><path d="M7,14A2,2 0 0,1 5,12A2,2 0 0,1 7,10A2,2 0 0,1 9,12A2,2 0 0,1 7,14M12.65,10C11.83,7.67 9.61,6 7, 6A6, 6 0 0, 0 1, 12A6, 6 0 0, 0 7, 18C9.61, 18 11.83, 16.33 12.65, 14H17V18H21V14H23V10H12.65Z" class="i pk" transform="translate(124, 73) scale(0.65)"></path><text x="13" y="111" class="tf">fumbles<tspan x="213" class="ty">int</tspan></text><text x="13" y="136" class="tf">games_played<tspan x="213" class="ty">int</tspan></text><text x="13" y="161" class="tf">losses<tspan x="213" class="ty">int</tspan></text><text x="13" y="186" class="tf">name<tspan x="213" class="ty">varchar(255)</tspan></text><text x="13" y="211" class="tf">first_downs_from_penalties<tspan x="213" class="ty">int</tspan></text><text x="13" y="236" class="tf">penalties<tspan x="213" class="ty">int</tspan></text><text x="13" y="261" class="tf">points_difference<tspan x="213" class="ty">int</tspan></text><text x="13" y="286" class="tf">points_for<tspan x="213" class="ty">int</tspan></text><text x="13" y="311" class="tf">post_season_result<tspan x="213" class="ty">varchar(255)</tspan></text><text x="13" y="336" class="tf">simple_rating_system<tspan x="213" class="ty">float</tspan></text><text x="13" y="361" class="tf">strength_of_schedule<tspan x="213" class="ty">float</tspan></text><text x="13" y="386" class="tf">win_percentage<tspan x="213" class="ty">float</tspan></text><text x="13" y="411" class="tf">wins<tspan x="213" class="ty">int</tspan></text><text x="13" y="436" class="tf">yards_from_penalties<tspan x="213" class="ty">int</tspan></text></svg></g></g><text class="qdbd-link" x="10" y="20">www.quickdatabasediagrams.com</text></svg>